<?xml version="1.0" encoding="UTF-8"?>
<svg width="180px" height="130px" viewBox="0 0 180 130" version="1.1" xmlns="http://www.w3.org/2000/svg" xmlns:xlink="http://www.w3.org/1999/xlink">
    <!-- Generator: Sketch 52.6 (67491) - http://www.bohemiancoding.com/sketch -->
    <title>Group 47</title>
    <desc>Created with Sketch.</desc>
    <defs>
        <filter x="-17.9%" y="-26.2%" width="135.8%" height="152.4%" filterUnits="objectBoundingBox" id="filter-1">
            <feOffset dx="0" dy="4" in="SourceAlpha" result="shadowOffsetOuter1"></feOffset>
            <feGaussianBlur stdDeviation="5" in="shadowOffsetOuter1" result="shadowBlurOuter1"></feGaussianBlur>
            <feColorMatrix values="0 0 0 0 0.274509804   0 0 0 0 0.352941176   0 0 0 0 0.988235294  0 0 0 0.603798687 0" type="matrix" in="shadowBlurOuter1" result="shadowMatrixOuter1"></feColorMatrix>
            <feMerge>
                <feMergeNode in="shadowMatrixOuter1"></feMergeNode>
                <feMergeNode in="SourceGraphic"></feMergeNode>
            </feMerge>
        </filter>
        <linearGradient x1="50%" y1="0%" x2="50%" y2="100%" id="linearGradient-2">
            <stop stop-color="#E1D7F6" offset="0%"></stop>
            <stop stop-color="#DFD4F1" offset="100%"></stop>
        </linearGradient>
        <linearGradient x1="50%" y1="0%" x2="50%" y2="96.4324422%" id="linearGradient-3">
            <stop stop-color="#F0E7FE" offset="0%"></stop>
            <stop stop-color="#EEE5FD" offset="100%"></stop>
        </linearGradient>
        <path d="M10.7755102,91.104558 C8.38095238,91.104558 5.98639456,91.8061395 3.59183673,93.2093023 C4.99453623,90.8139535 5.69588598,88.4186047 5.69588598,86.0232558 C5.69588598,83.627907 4.99453623,81.2325581 3.59183673,78.8372093 C5.98639456,80.2403722 8.38095238,80.9419536 10.7755102,80.9419536 C13.170068,80.9419536 15.5646259,80.2403722 17.9591837,78.8372093 C16.5564842,81.2325581 15.8551344,83.627907 15.8551344,86.0232558 C15.8551344,88.4186047 16.5564842,90.8139535 17.9591837,93.2093023 C15.5646259,91.8061395 13.170068,91.104558 10.7755102,91.104558 Z" id="path-4"></path>
        <filter x="-118.3%" y="-90.5%" width="336.6%" height="336.6%" filterUnits="objectBoundingBox" id="filter-5">
            <feOffset dx="0" dy="4" in="SourceAlpha" result="shadowOffsetOuter1"></feOffset>
            <feGaussianBlur stdDeviation="5" in="shadowOffsetOuter1" result="shadowBlurOuter1"></feGaussianBlur>
            <feColorMatrix values="0 0 0 0 0.274509804   0 0 0 0 0.352941176   0 0 0 0 0.988235294  0 0 0 0.5 0" type="matrix" in="shadowBlurOuter1"></feColorMatrix>
        </filter>
        <path d="M160.62585,46.8245115 C158.031746,46.8245115 155.437642,47.5845581 152.843537,49.1046512 C154.363129,46.5096899 155.122924,43.9147287 155.122924,41.3197674 C155.122924,38.7248062 154.363129,36.129845 152.843537,33.5348837 C155.437642,35.0549768 158.031746,35.8150234 160.62585,35.8150234 C163.219955,35.8150234 165.814059,35.0549768 168.408163,33.5348837 C166.888572,36.129845 166.128777,38.7248062 166.128777,41.3197674 C166.128777,43.9147287 166.888572,46.5096899 168.408163,49.1046512 C165.814059,47.5845581 163.219955,46.8245115 160.62585,46.8245115 Z" id="path-6"></path>
        <filter x="-109.2%" y="-83.5%" width="318.4%" height="318.4%" filterUnits="objectBoundingBox" id="filter-7">
            <feOffset dx="0" dy="4" in="SourceAlpha" result="shadowOffsetOuter1"></feOffset>
            <feGaussianBlur stdDeviation="5" in="shadowOffsetOuter1" result="shadowBlurOuter1"></feGaussianBlur>
            <feColorMatrix values="0 0 0 0 0.274509804   0 0 0 0 0.352941176   0 0 0 0 0.988235294  0 0 0 0.5 0" type="matrix" in="shadowBlurOuter1"></feColorMatrix>
        </filter>
    </defs>
    <g id="Page-1" stroke="none" stroke-width="1" fill="none" fill-rule="evenodd">
        <g id="因特驰营销页" transform="translate(-1233.000000, -1820.000000)">
            <g id="Group-24" transform="translate(454.000000, 1676.000000)">
                <g id="Group-23" transform="translate(0.000000, 122.000000)">
                    <g id="Group-47" transform="translate(783.000000, 34.000000)">
                        <g id="Group-21" filter="url(#filter-1)" transform="translate(9.170068, 0.000000)">
                            <g id="Group-20" transform="translate(15.564626, 0.000000)">
                                <rect id="Rectangle-26" stroke="#1F124C" stroke-width="3" fill="#008CFF" stroke-linecap="round" stroke-linejoin="round" x="9.44494048" y="13.303075" width="11.9727891" height="43.1162791"></rect>
                                <polygon id="Rectangle-36" fill="url(#linearGradient-2)" points="44.2993197 80.244186 70.6394558 80.244186 71.8367347 98.2093023 43.1020408 98.2093023"></polygon>
                                <rect id="Rectangle-25" stroke="url(#linearGradient-3)" stroke-width="4.8" fill="#FFFFFF" x="2.4" y="2.4" width="110.138776" height="76.6418605" rx="9.6"></rect>
                                <path d="M39.4423895,14.372093 L68.046131,14.372093" id="Path-10" stroke="#6486FC" stroke-width="7.2" stroke-linecap="round" stroke-linejoin="round"></path>
                                <path d="M17.9591837,14.7662495 L30.701318,14.7662495" id="Path" stroke="#F987D8" stroke-width="7.2" stroke-linecap="round" stroke-linejoin="round"></path>
                                <path d="M0,63.4767442 L114.938776,63.4767442 L114.938776,71.8418605 C114.938776,77.1437941 110.640709,81.4418605 105.338776,81.4418605 L9.6,81.4418605 C4.2980664,81.4418605 2.42565644e-15,77.1437941 1.77635684e-15,71.8418605 L0,63.4767442 Z" id="Rectangle-25" fill="url(#linearGradient-3)"></path>
                                <ellipse id="Oval-7" fill="#FFFFFF" cx="57.4693878" cy="73.0581395" rx="4.78911565" ry="4.79069767"></ellipse>
                                <path d="M17.9591837,28.744186 L72.622449,28.744186" id="Path-10" stroke="#6486FC" stroke-width="7.2" stroke-linecap="round" stroke-linejoin="round"></path>
                                <path d="M19.1564626,42.0776708 L55.8441752,42.0776708" id="Path-10" stroke="#6486FC" stroke-width="7.2" stroke-linecap="round" stroke-linejoin="round"></path>
                                <path d="M64.4846939,42.0776708 L74.0746173,42.0776708" id="Path" stroke="#F987D8" stroke-width="7.2" stroke-linecap="round" stroke-linejoin="round"></path>
                                <path d="M40.5391156,54.6076376 L93.0884354,54.6076376" id="Path-10" stroke="#6486FC" stroke-width="7.2" stroke-linecap="round" stroke-linejoin="round"></path>
                                <path d="M19.1564626,54.6076376 L31.8985969,54.6076376" id="Path" stroke="#F987D8" stroke-width="7.2" stroke-linecap="round" stroke-linejoin="round"></path>
                                <rect id="Rectangle-27" fill="url(#linearGradient-3)" x="38.3129252" y="93.4186047" width="38.3129252" height="9.58139535" rx="2.4"></rect>
                            </g>
                        </g>
                        <g id="Star" transform="translate(10.775510, 86.023256) rotate(-315.000000) translate(-10.775510, -86.023256) ">
                            <use fill="black" fill-opacity="1" filter="url(#filter-5)" xlink:href="#path-4"></use>
                            <use fill="#FFCF3C" fill-rule="evenodd" xlink:href="#path-4"></use>
                        </g>
                        <g id="Star" transform="translate(160.625850, 41.319767) rotate(-315.000000) translate(-160.625850, -41.319767) ">
                            <use fill="black" fill-opacity="1" filter="url(#filter-7)" xlink:href="#path-6"></use>
                            <use fill="#FFCF3C" fill-rule="evenodd" xlink:href="#path-6"></use>
                        </g>
                    </g>
                </g>
            </g>
        </g>
    </g>
</svg>