<?xml version="1.0" encoding="UTF-8"?>
<svg width="180px" height="130px" viewBox="0 0 180 130" version="1.1" xmlns="http://www.w3.org/2000/svg" xmlns:xlink="http://www.w3.org/1999/xlink">
    <!-- Generator: Sketch 52.6 (67491) - http://www.bohemiancoding.com/sketch -->
    <title>Group 46</title>
    <desc>Created with Sketch.</desc>
    <defs>
        <filter x="-17.3%" y="-17.4%" width="134.6%" height="134.8%" filterUnits="objectBoundingBox" id="filter-1">
            <feOffset dx="0" dy="4" in="SourceAlpha" result="shadowOffsetOuter1"></feOffset>
            <feGaussianBlur stdDeviation="5" in="shadowOffsetOuter1" result="shadowBlurOuter1"></feGaussianBlur>
            <feColorMatrix values="0 0 0 0 0.366155451   0 0 0 0 0.248776831   0 0 0 0 1  0 0 0 0.605355525 0" type="matrix" in="shadowBlurOuter1" result="shadowMatrixOuter1"></feColorMatrix>
            <feMerge>
                <feMergeNode in="shadowMatrixOuter1"></feMergeNode>
                <feMergeNode in="SourceGraphic"></feMergeNode>
            </feMerge>
        </filter>
        <linearGradient x1="50%" y1="0%" x2="50%" y2="93.3144134%" id="linearGradient-2">
            <stop stop-color="#FAF7FF" offset="0%"></stop>
            <stop stop-color="#F7F2FF" offset="100%"></stop>
        </linearGradient>
        <linearGradient x1="100%" y1="63.1350478%" x2="32.0076936%" y2="63.1350478%" id="linearGradient-3">
            <stop stop-color="#F0E7FE" offset="0%"></stop>
            <stop stop-color="#E6D7FF" offset="100%"></stop>
        </linearGradient>
        <linearGradient x1="149.763772%" y1="50%" x2="-23.237826%" y2="50%" id="linearGradient-4">
            <stop stop-color="#E7D8FF" offset="0%"></stop>
            <stop stop-color="#EEE5FD" offset="100%"></stop>
        </linearGradient>
    </defs>
    <g id="Page-1" stroke="none" stroke-width="1" fill="none" fill-rule="evenodd">
        <g id="因特驰营销页" transform="translate(-507.000000, -1820.000000)">
            <g id="Group-24" transform="translate(454.000000, 1676.000000)">
                <g id="Group-23" transform="translate(0.000000, 122.000000)">
                    <g id="Group-46" transform="translate(68.000000, 0.000000)">
                        <g id="Group-16" filter="url(#filter-1)">
                            <g id="Group-15" transform="translate(78.026959, 77.632442) rotate(-41.000000) translate(-78.026959, -77.632442) translate(22.226959, 24.163450)">
                                <path d="M66.0593159,50.5704919 L54.8036697,95.7653989 L54.8036697,101.08456 C54.8036697,104.274701 52.2208867,106.860821 49.0348624,106.860821 C45.8488381,106.860821 43.266055,104.274701 43.266055,101.08456 L43.266055,96.9200063 L43.266055,96.9200063 L43.266055,98.1964298 C43.266055,101.38657 40.683272,103.97269 37.4972477,103.97269 C34.3112234,103.97269 31.7284404,101.38657 31.7284404,98.1964298 L32.1501979,97.0343505 L31.7284404,97.038689 L31.7284404,98.1964298 C31.7284404,101.38657 29.1456573,103.97269 25.959633,103.97269 C22.7736087,103.97269 20.1908257,101.38657 20.1908257,98.1964298 L20.5693479,97.1534779 L20.303882,97.1562087 L7.60202647,52.0621212 L7.92230682,19.3474248 L51.8701669,18.7513934 L53.4093535,24.3403949 L56.5556951,27.4580149 C56.7046876,27.5593948 56.8493047,27.6706247 56.9886859,27.791765 C57.06935,27.8618725 57.1475388,27.9347781 57.2231091,28.0103484 L69.1623023,39.9495417 L70.4192356,41.195001 L70.4155754,41.2028147 L72.0448977,42.832137 C73.8274155,44.6146549 73.9273367,47.4723407 72.2736742,49.3750072 L71.9831995,49.7092208 C70.473232,51.4465552 67.9431653,51.7725358 66.0593159,50.5704919 Z" id="Combined-Shape" fill="url(#linearGradient-2)"></path>
                                <rect id="Rectangle-13" fill="#2289FF" x="2.88440367" y="0" width="51.9192661" height="20.216912" rx="2.88"></rect>
                                <path d="M54.3903043,50.5852918 L41.1168363,50.5852918 C37.930812,50.5852918 35.348029,47.9991718 35.348029,44.8090312 C35.348029,41.6188906 37.930812,39.0327706 41.1168363,39.0327706 L51.8104327,39.0327706 L53.2615322,39.0327706 L66.2152326,50.5852918 L91.0630423,50.3854227 L90.6966092,97.5689278 L54.3814869,96.7580441 L54.3903043,50.5852918 Z" id="Rectangle-17" fill="url(#linearGradient-3)"></path>
                                <rect id="Rectangle-13" fill="#2289FF" transform="translate(101.037928, 73.405470) rotate(-90.000000) translate(-101.037928, -73.405470) " x="75.0782952" y="63.2970137" width="51.9192661" height="20.216912" rx="2.88"></rect>
                                <rect id="Rectangle-17" fill="url(#linearGradient-4)" x="5.76880734" y="86.6439087" width="17.306422" height="11.5525212" rx="5.76"></rect>
                                <rect id="Rectangle-17" fill="url(#linearGradient-4)" x="2.88440367" y="51.9863452" width="20.1908257" height="11.5525212" rx="5.76"></rect>
                                <rect id="Rectangle-17" fill="url(#linearGradient-4)" x="2.88440367" y="75.0913875" width="20.1908257" height="11.5525212" rx="5.76"></rect>
                                <rect id="Rectangle-17" fill="url(#linearGradient-4)" x="0" y="63.5388664" width="23.0752294" height="11.5525212" rx="5.76"></rect>
                            </g>
                        </g>
                        <path d="M71.6003161,46.7518098 C69.2003161,46.7518098 66.8003161,47.4556617 64.4003161,48.8633656 C65.8062035,46.4602648 66.5091472,44.057164 66.5091472,41.6540632 C66.5091472,39.2509625 65.8062035,36.8478617 64.4003161,34.4447609 C66.8003161,35.8524648 69.2003161,36.5563167 71.6003161,36.5563167 C74.0003161,36.5563167 76.4003161,35.8524648 78.8003161,34.4447609 C77.3944286,36.8478617 76.6914849,39.2509625 76.6914849,41.6540632 C76.6914849,44.057164 77.3944286,46.4602648 78.8003161,48.8633656 C76.4003161,47.4556617 74.0003161,46.7518098 71.6003161,46.7518098 Z" id="Star" fill="#FFCF3C" transform="translate(71.600316, 41.654063) rotate(-315.000000) translate(-71.600316, -41.654063) "></path>
                        <path d="M96.1265625,39.2404766 C93.551147,39.2404766 90.9757315,39.9957729 88.4003161,41.5063655 C89.9089595,38.9276226 90.6632812,36.3488798 90.6632812,33.7701369 C90.6632812,31.191394 89.9089595,28.6126511 88.4003161,26.0339082 C90.9757315,27.5445008 93.551147,28.2997971 96.1265625,28.2997971 C98.701978,28.2997971 101.277393,27.5445008 103.852809,26.0339082 C102.344165,28.6126511 101.589844,31.191394 101.589844,33.7701369 C101.589844,36.3488798 102.344165,38.9276226 103.852809,41.5063655 C101.277393,39.9957729 98.701978,39.2404766 96.1265625,39.2404766 Z" id="Star" fill="#FFCF3C" transform="translate(96.126562, 33.770137) rotate(-315.000000) translate(-96.126562, -33.770137) "></path>
                        <path d="M97.2,118.953488 L84,103.333333" id="Path-21" stroke="#DFD7EC" stroke-width="3.6" stroke-linecap="round" stroke-linejoin="round"></path>
                        <path d="M87.6,126.162791 L74.4,110.542636" id="Path-21" stroke="#DFD7EC" stroke-width="3.6" stroke-linecap="round" stroke-linejoin="round"></path>
                    </g>
                </g>
            </g>
        </g>
    </g>
</svg>