<?xml version="1.0" encoding="UTF-8"?>
<svg width="180px" height="130px" viewBox="0 0 180 130" version="1.1" xmlns="http://www.w3.org/2000/svg" xmlns:xlink="http://www.w3.org/1999/xlink">
    <!-- Generator: Sketch 52.6 (67491) - http://www.bohemiancoding.com/sketch -->
    <title>Group 19</title>
    <desc>Created with Sketch.</desc>
    <defs>
        <filter x="-20.5%" y="-26.2%" width="140.9%" height="151.4%" filterUnits="objectBoundingBox" id="filter-1">
            <feOffset dx="0" dy="4" in="SourceAlpha" result="shadowOffsetOuter1"></feOffset>
            <feGaussianBlur stdDeviation="5" in="shadowOffsetOuter1" result="shadowBlurOuter1"></feGaussianBlur>
            <feColorMatrix values="0 0 0 0 0.364705882   0 0 0 0 0.247058824   0 0 0 0 1  0 0 0 0.601420969 0" type="matrix" in="shadowBlurOuter1" result="shadowMatrixOuter1"></feColorMatrix>
            <feMerge>
                <feMergeNode in="shadowMatrixOuter1"></feMergeNode>
                <feMergeNode in="SourceGraphic"></feMergeNode>
            </feMerge>
        </filter>
        <linearGradient x1="50%" y1="0%" x2="50%" y2="100%" id="linearGradient-2">
            <stop stop-color="#E1D7F6" offset="0%"></stop>
            <stop stop-color="#DFD4F1" offset="100%"></stop>
        </linearGradient>
        <linearGradient x1="50%" y1="0%" x2="50%" y2="96.4324422%" id="linearGradient-3">
            <stop stop-color="#F0E7FE" offset="0%"></stop>
            <stop stop-color="#EEE5FD" offset="100%"></stop>
        </linearGradient>
        <path d="M7.19083969,0 L7.19083969,0 C11.1622308,-7.2953271e-16 14.3816794,3.21944859 14.3816794,7.19083969 L14.3816794,74.1149425 L7.19083969,83.6046157 L4.54747351e-13,74.1149425 L4.53859172e-13,7.19083969 C4.53372817e-13,3.21944859 3.21944859,7.2953271e-16 7.19083969,0 Z" id="path-4"></path>
        <linearGradient x1="50%" y1="0%" x2="50%" y2="96.5408237%" id="linearGradient-6">
            <stop stop-color="#F8D169" offset="0%"></stop>
            <stop stop-color="#FCD660" offset="100%"></stop>
        </linearGradient>
        <path d="M23.2454155,54.0831567 C20.8484689,54.0831567 18.4515223,54.7834071 16.0545758,56.183908 C17.4586745,53.7931034 18.1607239,51.4022989 18.1607239,49.0114943 C18.1607239,46.6206897 17.4586745,44.2298851 16.0545758,41.8390805 C18.4515223,43.2395814 20.8484689,43.9398318 23.2454155,43.9398318 C25.642362,43.9398318 28.0393086,43.2395814 30.4362551,41.8390805 C29.0321564,44.2298851 28.330107,46.6206897 28.330107,49.0114943 C28.330107,51.4022989 29.0321564,53.7931034 30.4362551,56.183908 C28.0393086,54.7834071 25.642362,54.0831567 23.2454155,54.0831567 Z" id="path-7"></path>
        <filter x="-118.2%" y="-90.6%" width="336.4%" height="337.0%" filterUnits="objectBoundingBox" id="filter-8">
            <feOffset dx="0" dy="4" in="SourceAlpha" result="shadowOffsetOuter1"></feOffset>
            <feGaussianBlur stdDeviation="5" in="shadowOffsetOuter1" result="shadowBlurOuter1"></feGaussianBlur>
            <feColorMatrix values="0 0 0 0 0.274509804   0 0 0 0 0.352941176   0 0 0 0 0.988235294  0 0 0 0.5 0" type="matrix" in="shadowBlurOuter1"></feColorMatrix>
        </filter>
        <path d="M10.912661,31.0626796 C8.34052215,31.0626796 5.76838328,31.8141112 3.19624441,33.3169744 C4.70296848,30.7514264 5.45633051,28.1858784 5.45633051,25.6203305 C5.45633051,23.0547825 4.70296848,20.4892345 3.19624441,17.9236865 C5.76838328,19.4265497 8.34052215,20.1779813 10.912661,20.1779813 C13.4847999,20.1779813 16.0569388,19.4265497 18.6290776,17.9236865 C17.1223536,20.4892345 16.3689915,23.0547825 16.3689915,25.6203305 C16.3689915,28.1858784 17.1223536,30.7514264 18.6290776,33.3169744 C16.0569388,31.8141112 13.4847999,31.0626796 10.912661,31.0626796 Z" id="path-9"></path>
        <filter x="-110.2%" y="-84.5%" width="320.3%" height="320.9%" filterUnits="objectBoundingBox" id="filter-10">
            <feOffset dx="0" dy="4" in="SourceAlpha" result="shadowOffsetOuter1"></feOffset>
            <feGaussianBlur stdDeviation="5" in="shadowOffsetOuter1" result="shadowBlurOuter1"></feGaussianBlur>
            <feColorMatrix values="0 0 0 0 0.274509804   0 0 0 0 0.352941176   0 0 0 0 0.988235294  0 0 0 0.5 0" type="matrix" in="shadowBlurOuter1"></feColorMatrix>
        </filter>
    </defs>
    <g id="Page-1" stroke="none" stroke-width="1" fill="none" fill-rule="evenodd">
        <g id="因特驰营销页" transform="translate(-869.000000, -1820.000000)">
            <g id="Group-24" transform="translate(454.000000, 1676.000000)">
                <g id="Group-23" transform="translate(0.000000, 122.000000)">
                    <g id="Group-19" transform="translate(427.000000, 33.000000)">
                        <g id="Group-22" filter="url(#filter-1)" transform="translate(30.961832, 0.000000)">
                            <g id="Group-18">
                                <path d="M9.58778626,78.3688937 C9.58778626,63.6012133 9.58778626,40.2939815 9.58778626,10.7586207 C9.58778626,5.47700101 13.8803844,1.1954023 19.1755725,1.1954023 L89.2289107,1.1954023" id="Rectangle-20" stroke="#1F124C" stroke-width="3" stroke-linecap="round" stroke-linejoin="round"></path>
                                <path d="M80.2977099,8.36781609 C80.2977099,3.74639887 84.0537333,0 88.6870229,0 C93.3203125,0 97.0763359,3.74639887 97.0763359,8.36781609 L97.0763359,18.8182471 L80.2977099,18.8182471 L80.2977099,8.36781609 Z" id="Rectangle-21" fill="url(#linearGradient-2)"></path>
                                <rect id="Rectangle-24" stroke="#1F124C" stroke-width="3" fill="#008CFF" stroke-linecap="round" stroke-linejoin="round" x="19.1755725" y="15.5402299" width="52.7328244" height="11.954023"></rect>
                                <path d="M19.1755725,41.8390805 L71.9083969,41.8390805" id="Path-6" stroke="#1F124C" stroke-width="3" stroke-linecap="round" stroke-linejoin="round"></path>
                                <path d="M19.1755725,53.7931034 L71.9083969,53.7931034" id="Path-6" stroke="#1F124C" stroke-width="3" stroke-linecap="round" stroke-linejoin="round"></path>
                                <path d="M19.1755725,65.7471264 L45.8275584,65.7471264" id="Path-6" stroke="#1F124C" stroke-width="3" stroke-linecap="round" stroke-linejoin="round"></path>
                                <path d="M89.8977099,8.8817842e-15 C84.5957763,9.8557336e-15 80.2977099,4.2980664 80.2977099,9.6 L80.2977099,98.0229885 L8.38931298,98.0229885 L8.38931298,9.6 C8.38931298,4.2980664 12.6873794,9.8557336e-15 17.989313,8.8817842e-15 L89.8977099,0 Z" id="Combined-Shape" fill="#FFFFFF"></path>
                                <path d="M38.2832628,19.1264368 L66.9155385,19.1264368" id="Path-10" stroke="#6486FC" stroke-width="7.2" stroke-linecap="round" stroke-linejoin="round"></path>
                                <path d="M17.909217,35.862069 L65.9160305,35.862069" id="Path-10" stroke="#6486FC" stroke-width="7.2" stroke-linecap="round" stroke-linejoin="round"></path>
                                <path d="M17.909217,52.5977011 L49.6008767,52.5977011" id="Path-10" stroke="#F987D8" stroke-width="7.2" stroke-linecap="round" stroke-linejoin="round"></path>
                                <path d="M16.778626,19.5198455 L29.5334715,19.5198455" id="Path" stroke="#F987D8" stroke-width="7.2" stroke-linecap="round" stroke-linejoin="round"></path>
                                <path d="M71.9083969,81.2873563 L71.9083969,88.4597701 C71.9083969,93.5690708 75.9254624,97.7425398 80.9812142,98.0094296 L80.9812142,98.0229885 L9.58778626,98.0229885 C4.29259812,98.0229885 0,93.7413898 0,88.4597701 L0,81.2873563 L71.9083969,81.2873563 Z" id="Combined-Shape" fill="url(#linearGradient-3)"></path>
                                <g id="Group-17" transform="translate(98.858125, 63.335068) rotate(-330.000000) translate(-98.858125, -63.335068) translate(86.358125, 20.335068)">
                                    <g id="Group-43" transform="translate(10.032227, 41.751953) rotate(-6.000000) translate(-10.032227, -41.751953) translate(2.532227, -0.248047)">
                                        <mask id="mask-5" fill="white">
                                            <use xlink:href="#path-4"></use>
                                        </mask>
                                        <use id="Rectangle-23" fill="url(#linearGradient-3)" xlink:href="#path-4"></use>
                                        <polygon id="Path-4" fill="#5C5C5C" mask="url(#mask-5)" points="8.50812188 89.5359965 2.08784642 80.5770604 14.0564124 81.0595114"></polygon>
                                        <path d="M7.19083969,2.23820962e-13 L7.19083969,2.23820962e-13 C11.1634832,2.23091199e-13 14.385146,3.21819437 14.3894253,7.19083552 L14.4615154,74.1154342 L-2.49112765,74.1154342 L-0.241558182,7.18678128 C-0.106856433,3.17916704 3.18096233,2.24557564e-13 7.19083969,2.23820962e-13 Z" id="Rectangle-23" fill="url(#linearGradient-6)" mask="url(#mask-5)"></path>
                                        <path d="M7.19083969,-1.95399252e-13 L7.19083969,-1.95399252e-13 C11.1699755,-1.96130208e-13 14.4031286,3.21163227 14.429703,7.19067933 L14.4615154,11.954023 L-2.49112765,11.954023 L-1.46700092,7.03960822 C-0.612420133,2.9387833 3.00191701,-1.9462976e-13 7.19083969,-1.95399252e-13 Z" id="Rectangle-23" fill="#F987D8" mask="url(#mask-5)"></path>
                                    </g>
                                </g>
                            </g>
                        </g>
                        <g id="Star" transform="translate(23.245415, 49.011494) rotate(-315.000000) translate(-23.245415, -49.011494) ">
                            <use fill="black" fill-opacity="1" filter="url(#filter-8)" xlink:href="#path-7"></use>
                            <use fill="#FFCF3C" fill-rule="evenodd" xlink:href="#path-7"></use>
                        </g>
                        <g id="Star" transform="translate(10.912661, 25.620330) rotate(-315.000000) translate(-10.912661, -25.620330) ">
                            <use fill="black" fill-opacity="1" filter="url(#filter-10)" xlink:href="#path-9"></use>
                            <use fill="#FFCF3C" fill-rule="evenodd" xlink:href="#path-9"></use>
                        </g>
                    </g>
                </g>
            </g>
        </g>
    </g>
</svg>