<?xml version="1.0" encoding="UTF-8"?>
<svg width="258px" height="206px" viewBox="0 0 258 206" version="1.1" xmlns="http://www.w3.org/2000/svg" xmlns:xlink="http://www.w3.org/1999/xlink">
    <!-- Generator: Sketch 51 (57462) - http://www.bohemiancoding.com/sketch -->
    <title>Group 27</title>
    <desc>Created with Sketch.</desc>
    <defs>
        <circle id="path-1" cx="103" cy="103" r="103"></circle>
        <filter x="-4.4%" y="-4.4%" width="108.7%" height="108.7%" filterUnits="objectBoundingBox" id="filter-3">
            <feOffset dx="18" dy="18" in="SourceAlpha" result="shadowOffsetInner1"></feOffset>
            <feComposite in="shadowOffsetInner1" in2="SourceAlpha" operator="arithmetic" k2="-1" k3="1" result="shadowInnerInner1"></feComposite>
            <feColorMatrix values="0 0 0 0 0.909803922   0 0 0 0 0.937254902   0 0 0 0 0.988235294  0 0 0 1 0" type="matrix" in="shadowInnerInner1"></feColorMatrix>
        </filter>
        <path d="M0.298571751,32.3187027 C-0.998283689,17.1889765 6.28398511,9.62411343 22.1453782,9.62411343 C45.9374677,9.62411343 36.8882558,9.62411343 47.040378,9.62411343 C53.8084594,9.62411343 61.4628749,6.51917462 70.0036243,0.309297008 C72.3318291,21.6489008 68.4317072,32.3187027 58.3032584,32.3187027 C48.1748097,32.3187027 28.8399141,32.3187027 0.298571751,32.3187027 Z" id="path-4"></path>
    </defs>
    <g id="Page-1" stroke="none" stroke-width="1" fill="none" fill-rule="evenodd">
        <g id="因特驰营销页" transform="translate(-508.000000, -3098.000000)">
            <rect fill="#FFFFFF" x="0" y="0" width="1920" height="7460"></rect>
            <g id="Group-27" transform="translate(508.000000, 3098.000000)">
                <g id="Group-26" transform="translate(20.672869, 0.000000)">
                    <mask id="mask-2" fill="white">
                        <use xlink:href="#path-1"></use>
                    </mask>
                    <g id="Oval-8">
                        <use fill="#CFDCF9" fill-rule="evenodd" xlink:href="#path-1"></use>
                        <use fill="black" fill-opacity="1" filter="url(#filter-3)" xlink:href="#path-1"></use>
                    </g>
                    <path d="M103.416975,127.404541 L116.21479,127.404541 L116.21479,137.044892 C144.34958,145.880959 158.416975,154.848053 158.416975,163.946172 C158.416975,175.019522 158.416975,193.911565 158.416975,220.622304 L103.416975,220.622304 L47.4139213,220.622304 C47.4139213,193.911565 47.4139213,175.019522 47.4139213,163.946172 C47.4139213,154.848053 61.4813165,145.880959 89.6161068,137.044892 L89.6161068,127.404541 L103.416975,127.404541 Z" id="Combined-Shape" fill="#9F47FD" mask="url(#mask-2)"></path>
                    <path d="M103.416975,137.404541 L116.21479,137.404541 L116.21479,147.044892 C144.34958,155.880959 158.416975,164.848053 158.416975,173.946172 C158.416975,185.019522 158.416975,203.911565 158.416975,230.622304 L103.416975,230.622304 L47.4139213,230.622304 C47.4139213,203.911565 47.4139213,185.019522 47.4139213,173.946172 C47.4139213,164.848053 61.4813165,155.880959 89.6161068,147.044892 L89.6161068,137.404541 L103.416975,137.404541 Z" id="Combined-Shape" fill="#9230FC" mask="url(#mask-2)"></path>
                    <path d="M89.2490234,125.749023 C92.8707796,127.42806 97.5374463,128.267578 103.249023,128.267578 C108.960601,128.267578 113.627267,127.42806 117.249023,125.749023 L117.249023,144.858398 L89.2490234,144.858398 L89.2490234,125.749023 Z" id="Rectangle-19" fill="#FFCCB7" mask="url(#mask-2)"></path>
                    <path d="M89.2490234,133.749023 C92.8707796,135.42806 97.5374463,136.267578 103.249023,136.267578 C108.960601,136.267578 113.627267,135.42806 117.249023,133.749023 L117.249023,116.908203 L89.2490234,116.908203 L89.2490234,133.749023 Z" id="Rectangle-19" fill="#FFBBA0" mask="url(#mask-2)"></path>
                    <polygon id="Path-16" fill="#FCD660" mask="url(#mask-2)" points="99.1991193 155.125863 95.5126897 201.925451 103.534201 209.615041 111.555713 201.925451 107.438427 155.125863"></polygon>
                    <polygon id="Path-15" fill="#FFCB2B" mask="url(#mask-2)" points="95.9555493 144.89209 110.622817 144.89209 107.4597 155.133301 99.1091138 155.133301"></polygon>
                    <polygon id="Path-14" fill="#B671FF" mask="url(#mask-2)" points="89.2725927 136.89616 96.052229 145.001953 83.9195523 154.854915 83.9195523 139.387859"></polygon>
                    <polygon id="Path-14" fill="#B671FF" mask="url(#mask-2)" transform="translate(116.562418, 145.899219) scale(-1, 1) translate(-116.562418, -145.899219) " points="115.876705 136.919842 122.601171 144.96582 110.523665 154.878596 110.523665 138.813477"></polygon>
                    <path d="M70.5006667,178.193363 C70.5006667,177.203059 71.3034664,176.400259 72.2937701,176.400259 C73.2840738,176.400259 74.0868735,177.203059 74.0868735,178.193363 L74.0868735,211.345152 C74.0868735,212.335455 73.2840738,213.138255 72.2937701,213.138255 C71.3034664,213.138255 70.5006667,212.335455 70.5006667,211.345152 L70.5006667,178.193363 Z" id="Path-17" fill="#8030E4" fill-rule="nonzero" mask="url(#mask-2)"></path>
                    <path d="M132.559195,178.193363 C132.559195,177.203059 133.361995,176.400259 134.352298,176.400259 C135.342602,176.400259 136.145402,177.203059 136.145402,178.193363 L136.145402,211.345152 C136.145402,212.335455 135.342602,213.138255 134.352298,213.138255 C133.361995,213.138255 132.559195,212.335455 132.559195,211.345152 L132.559195,178.193363 Z" id="Path-17" fill="#8030E4" fill-rule="nonzero" mask="url(#mask-2)"></path>
                    <ellipse id="Oval-3" fill="#FFCCB7" mask="url(#mask-2)" cx="70.2654289" cy="99.4095563" rx="7.75731603" ry="7.74061433"></ellipse>
                    <ellipse id="Oval-3" fill="#FFCCB7" mask="url(#mask-2)" cx="136.906663" cy="99.4095563" rx="7.75731603" ry="7.74061433"></ellipse>
                    <path d="M103.234022,130.372014 C121.442073,130.372014 136.202615,116.509649 136.202615,99.4095563 C136.202615,94.8274066 136.202615,85.0820311 136.202615,70.1734298 C121.483215,69.0225426 110.493684,68.447099 103.234022,68.447099 C96.157512,68.447099 85.167981,69.5431821 70.2654289,71.7353482 C70.2654289,85.4306633 70.2654289,94.6553994 70.2654289,99.4095563 C70.2654289,116.509649 85.0259708,130.372014 103.234022,130.372014 Z" id="Combined-Shape" fill="#FCDACC" mask="url(#mask-2)"></path>
                    <path d="M92.1713891,112.700256 C91.2626913,111.818126 91.2411541,110.366373 92.1232844,109.457675 C93.0054148,108.548977 94.4571678,108.52744 95.3658657,109.40957 C97.4596426,111.442132 100.252458,112.597681 103.234022,112.597681 C106.213528,112.597681 109.004568,111.443739 111.097944,109.413679 C112.0071,108.532021 113.458842,108.554313 114.3405,109.463469 C115.222158,110.372625 115.199866,111.824367 114.29071,112.706025 C111.349797,115.557987 107.417231,117.183888 103.234022,117.183888 C99.0479183,117.183888 95.1128584,115.555726 92.1713891,112.700256 Z" id="Oval-4" fill="#FFB3A0" fill-rule="nonzero" mask="url(#mask-2)" transform="translate(103.231477, 112.972848) scale(1, -1) translate(-103.231477, -112.972848) "></path>
                    <path d="M70.2654289,71.8339733 L70.2654289,96.7165936 C77.2588816,96.6813173 80.755608,94.491041 80.755608,90.1457645 C80.755608,85.8004879 80.755608,79.6965576 80.755608,71.8339733 L70.2654289,71.8339733 Z" id="Path-11" fill="#605B7B" mask="url(#mask-2)"></path>
                    <path d="M125.770114,69.6289173 L125.770114,96.6236093 C132.763567,96.588333 136.260293,94.3980567 136.260293,90.0527802 C136.260293,85.7075037 136.260293,78.8995494 136.260293,69.6289173 L125.770114,69.6289173 Z" id="Path-11" fill="#605B7B" mask="url(#mask-2)" transform="translate(131.015204, 83.126263) scale(-1, 1) translate(-131.015204, -83.126263) "></path>
                    <g id="Group-50" mask="url(#mask-2)">
                        <g transform="translate(70.000000, 42.000000)">
                            <mask id="mask-5" fill="white">
                                <use xlink:href="#path-4"></use>
                            </mask>
                            <use id="Path-12" stroke="none" fill="#69627D" fill-rule="evenodd" xlink:href="#path-4"></use>
                            <path d="M-5.70142825,24.3187027 C-6.99828369,9.18897651 0.283985115,1.62411343 16.1453782,1.62411343 C39.9374677,1.62411343 30.8882558,1.62411343 41.040378,1.62411343 C47.8084594,1.62411343 55.4628749,-1.48082538 64.0036243,-7.69070299 C66.3318291,13.6489008 62.4317072,24.3187027 52.3032584,24.3187027 C42.1748097,24.3187027 22.8399141,24.3187027 -5.70142825,24.3187027 Z" id="Path-12" stroke="none" fill="#787089" fill-rule="evenodd" mask="url(#mask-5)"></path>
                        </g>
                    </g>
                </g>
                <path d="M216.263833,124.905071 L204.270517,133.955359 C203.923482,134.217235 203.500567,134.358899 203.065811,134.358899 C201.961242,134.358899 201.065811,133.463468 201.065811,132.358899 L201.065811,124.905071 L195.640258,124.905071 C189.012841,124.905071 183.640258,119.532488 183.640258,112.905071 L183.640258,86.5910781 C183.640258,79.9636611 189.012841,74.5910781 195.640258,74.5910781 L245.334761,74.5910781 C251.962178,74.5910781 257.334761,79.9636611 257.334761,86.5910781 L257.334761,112.905071 C257.334761,119.532488 251.962178,124.905071 245.334761,124.905071 L216.263833,124.905071 Z" id="Combined-Shape" fill="#839DFC" transform="translate(220.487509, 105.482371) scale(-1, 1) translate(-220.487509, -105.482371) "></path>
                <path d="M24.8428199,138.134461 L15.6379893,145.080527 C15.2909546,145.342403 14.8680387,145.484067 14.4332834,145.484067 C13.3287139,145.484067 12.4332834,144.588636 12.4332834,143.484067 L12.4332834,138.134461 L10.317738,138.134461 C4.79489046,138.134461 0.317737959,133.657308 0.317737959,128.134461 L0.317737959,113.152416 C0.317737959,107.629569 4.79489046,103.152416 10.317738,103.152416 L41.5556581,103.152416 C47.0785056,103.152416 51.5556581,107.629569 51.5556581,113.152416 L51.5556581,128.134461 C51.5556581,133.657308 47.0785056,138.134461 41.5556581,138.134461 L24.8428199,138.134461 Z" id="Combined-Shape" fill="#B27DFC"></path>
                <path d="M46.6246911,75.609256 L39.8888468,80.6226551 C39.543717,80.8795306 39.1249535,81.0182659 38.6947214,81.0182659 C37.5901519,81.0182659 36.6947214,80.1228354 36.6947214,79.0182659 L36.6947214,75.609256 L32.5007792,75.609256 C29.4627827,75.609256 27,73.1464733 27,70.1084768 L27,53.5007792 C27,50.4627827 29.4627827,48 32.5007792,48 L62.4992208,48 C65.5372173,48 68,50.4627827 68,53.5007792 L68,70.1084768 C68,73.1464733 65.5372173,75.609256 62.4992208,75.609256 L46.6246911,75.609256 Z" id="Combined-Shape" fill="#30E4FC"></path>
                <path d="M10,115.25 L40.1367187,115.25" id="Path-20" stroke="#FFFFFF" stroke-width="3.59" opacity="0.300000012" stroke-linecap="round" stroke-linejoin="round"></path>
                <path d="M9,125.25 L24.5019531,125.25" id="Path-20" stroke="#FFFFFF" stroke-width="3.59" opacity="0.300000012" stroke-linecap="round" stroke-linejoin="round"></path>
                <path d="M38,56.25 L53.5019531,56.25" id="Path-20" stroke="#FFFFFF" stroke-width="3.59" opacity="0.300000012" stroke-linecap="round" stroke-linejoin="round"></path>
                <path d="M38,65.25 L53.5019531,65.25" id="Path-20" stroke="#FFFFFF" stroke-width="3.59" opacity="0.300000012" stroke-linecap="round" stroke-linejoin="round"></path>
                <path d="M201,88.25 L239.964844,88.25" id="Path-20" stroke="#FFFFFF" stroke-width="3.59" opacity="0.300000012" stroke-linecap="round" stroke-linejoin="round"></path>
                <path d="M201,100.25 L239.964844,100.25" id="Path-20" stroke="#FFFFFF" stroke-width="3.59" opacity="0.300000012" stroke-linecap="round" stroke-linejoin="round"></path>
                <path d="M201,112.25 L220.482422,112.25" id="Path-20" stroke="#FFFFFF" stroke-width="3.59" opacity="0.300000012" stroke-linecap="round" stroke-linejoin="round"></path>
            </g>
        </g>
    </g>
</svg>